<?xml version="1.0" encoding="utf-8"?>
<!-- Generator: Adobe Illustrator 26.0.0, SVG Export Plug-In . SVG Version: 6.00 Build 0)  -->
<svg version="1.1" id="Layer_1" xmlns="http://www.w3.org/2000/svg" xmlns:xlink="http://www.w3.org/1999/xlink" x="0px" y="0px"
	 viewBox="0 0 127 127" style="enable-background:new 0 0 127 127;" xml:space="preserve">
<style type="text/css">
	.st0{fill:#FDFDFD;}
	.st1{fill:#020202;}
	.st2{fill:#030303;}
</style>
<circle cx="63.8" cy="63.7" r="55.5"/>
<g>
	<path d="M64,16.7c27.2,2.3,45.8,19.8,45.8,46.7c0,27.4-19.5,46.6-46.8,46.3c-27.6-0.4-46.4-20.3-45.7-47.3
		C17.9,35.4,36.8,18.4,64,16.7z"/>
	<path class="st0" d="M78.1,65.5c-1,0-2.1-0.2-3,0c-3.1,0.7-7.5-2.1-9,1.7c-1.5,3.7,1.4,7.4,4.5,9.2c3.8,2.1,8.6,3.1,12-0.8
		c2.2-2.5,4-6.8,7-2.6c2.3,3.1-1.5,6.2-4.3,8.1c-6.2,4.2-12.7,3.6-18.7-0.3c-3.2-2.1-4.9-2.3-8.1,0.2c-4.3,3.3-9.6,3.9-15.2,1.8
		c-5.3-2.1-8-5.8-8.2-11.1c-0.2-5.2,3-8.4,7.8-10.2c3.5-1.3,6.9-2.4,10.7-2.1c2.9,0.2,6.3,0.9,5.9-4.2c-0.3-3.6-1.6-5.9-5.4-5.9
		c-3.8,0-8.7-1.6-10.6,3.3c-1.3,3.3-3.4,3.4-5.3,2.2c-3.2-2.1,0.3-4.6,1.1-5.7c4.8-6.2,11.4-7.8,18.5-4.3c4.5,2.2,8.4,3.1,12.8,0
		c5.3-3.7,11.1-1.7,14.8,1.6c4.3,3.8,7,9.4,6.6,15.9c-0.2,2.8-1.6,3.3-3.8,3.3C84.8,65.4,81.4,65.5,78.1,65.5z"/>
	<path class="st1" d="M49.7,77.7c-4.9,0.4-8.6-2.6-8.1-6.5c0.8-6.2,6.6-5.9,11.7-5.7c3.3,0.2,7.1-0.7,6.1,4.8
		C58.5,75.6,55.2,78.1,49.7,77.7z"/>
	<path class="st2" d="M85.5,59c-7,0-13.2,0-20.1,0c2.2-5.8,4.2-9.9,11.1-10C83.8,48.9,83.7,54.2,85.5,59z"/>
</g>
</svg>
