<?xml version="1.0" encoding="utf-8"?>
<!-- Generator: Adobe Illustrator 26.0.0, SVG Export Plug-In . SVG Version: 6.00 Build 0)  -->
<svg version="1.1" id="Layer_1" xmlns="http://www.w3.org/2000/svg" xmlns:xlink="http://www.w3.org/1999/xlink" x="0px" y="0px"
	 viewBox="0 0 127 127" style="enable-background:new 0 0 127 127;" xml:space="preserve">
<style type="text/css">
	.st0{fill:#FFFFFF;}
	.st1{fill:#010101;}
	.st2{fill:#020202;}
</style>
<circle class="st0" cx="63.8" cy="63.7" r="55.5"/>
<g>
	<path class="st1" d="M38.6,38.6c0.8-4.9,5.8-6.3,8.7-10.5c4.3,4.6,8.5,8.8,12.4,13.3c2.7,3.2,4.7,4.1,7.9,0.3
		c3.8-4.6,8.3-8.7,13.1-13.6c0.8,4.8,9.2,3.7,6.5,10.4c0.9,1.6,0.1,2.9-0.9,3.9c-6,5.8-10.7,13.1-18.6,16.8
		c-2.6,0.5-5.2,0.5-7.7-0.3C51.1,54,44.7,46.4,38.6,38.6z"/>
	<path class="st2" d="M36.6,40.6c8,5.1,13,13.4,20.8,18.7c1.3,3,2.2,6,1.3,9.3c-5.9,8-11.6,16.4-22.2,18.9c-5.2,0.8-4.4-5.5-8.3-6.3
		c4.2-5.1,7.8-10.1,13-13.5c4-2.6,3.1-5-0.2-7.7c-2.9-2.4-6.2-4.3-8.5-7.5C28.3,46.2,28.8,44.2,36.6,40.6z"/>
	<path class="st2" d="M71.4,59.6c6.6-6,13.3-12,18.7-19.1c5.8-2.1,6.5,3.7,9,6.2c1.9,1.9-2,2.8-2.9,4.5c-1.7,3.3-4.4,5.6-7.5,7.6
		c-4.8,3.2-6,6.9-0.3,10.2c5,2.9,7.6,7.9,11.8,11.9c-3.8,1.9-4.4,8-10.1,6.7c-8-5-15.2-10.8-19.6-19.3
		C69.6,65.2,68.5,62.2,71.4,59.6z"/>
	<path class="st1" d="M69.3,70c2.4,7.3,9.8,10,14.2,15.4c1.2,1.5,2.5,2.8,3.7,4.2c2.2,5.7-3.9,6.3-6.2,8.9c-1.5,1.7-2.8-2.1-4.5-3
		c-0.8-0.5-1.5-1.2-2.3-1.8c-4-3.1-6.1-10.1-10.8-9.6c-3.7,0.4-6.8,6.3-10.3,9.5c-7,6.4-10.1,5.5-14.6-4.2
		c8.1-4.8,14.2-11.8,20.8-18.3C62.2,66.9,65.8,68.7,69.3,70z"/>
</g>
</svg>
