<?xml version="1.0" encoding="utf-8"?>
<!-- Generator: Adobe Illustrator 26.0.0, SVG Export Plug-In . SVG Version: 6.00 Build 0)  -->
<svg version="1.1" id="Layer_1" xmlns="http://www.w3.org/2000/svg" xmlns:xlink="http://www.w3.org/1999/xlink" x="0px" y="0px"
	 viewBox="0 0 127 127" style="enable-background:new 0 0 127 127;" xml:space="preserve">
<style type="text/css">
	.st0{fill:#00CDFE;}
	.st1{fill:#00CCFD;}
	.st2{fill:#00CAFA;}
</style>
<circle class="st0" cx="63.8" cy="63.7" r="55.5"/>
<g>
	<path class="st0" d="M63.1,22.3c24.4,2.7,41.4,16.6,41.4,41.7c0.1,24.9-16.6,41.3-41.3,41.2c-24.3-0.1-40.4-15.7-40.9-40.6
		C21.7,40.6,37.6,25.4,63.1,22.3z"/>
	<path d="M56.6,82c-12.5,1.3-14.1-10.6-18.8-17.2c-3.1-4.4-1.4-13.2,6.7-15.9c3.5-1.2,4.1-4.8,7-6.8c13.5-9,30.1-3.9,33.7,11.6
		c1.1,4.7,6,8.1,3.3,14.5c-1.9,4.5,0.4,10.6-8.3,9.6c-4.3-0.5-3.6,5.2-5.1,8c-3,5.9-14.1,9.7-19.2,5.9c-4.5-3.4-0.8-6.6,0.4-9.9
		c0-3.1,2.9-5.3,2.9-8.4c0.5-3.7,6.8-3.8,5.4-8.7c0.7-0.9,1.4-1.9,1.9-2.9c-0.3,0.8-0.7,1.5-1.3,2.2c-2.7,2.5-3.2,6.3-5.4,9.1
		C56.8,75.4,57,78.8,56.6,82z"/>
	<path class="st1" d="M65.8,64.4c1.2,3.4,4.5,0.2,6.8,2.4c-3.2,4.5-9.4,3.4-12.9,6.8l0.3,0.3c0-5.5,0-11,0-16.6
		c5.1,0.1,1.8,6.7,6.1,7.2L65.8,64.4z"/>
	<path class="st0" d="M56.6,82c-0.9-5.2-6.3-9.2-4.1-15.4c4.1,0.9,3.3,6.7,7.5,7.4c0,0-0.3-0.3-0.3-0.3c1.7,5.1,8.4-2.5,8.3,2.4
		c-0.1,5.7-6.6,1.8-9.7,3.6c-0.8,0.4-1.2,1.4-1.8,2.1C56.4,81.8,56.6,82,56.6,82z"/>
	<path class="st2" d="M66,64.7c-2.6-7.5,4.8-9,7.9-15.4c1.9,9.4-3.8,11.9-8.1,15.1C65.8,64.4,66,64.7,66,64.7z"/>
</g>
</svg>
