<?xml version="1.0" encoding="utf-8"?>
<!-- Generator: Adobe Illustrator 26.0.0, SVG Export Plug-In . SVG Version: 6.00 Build 0)  -->
<svg version="1.1" id="Layer_1" xmlns="http://www.w3.org/2000/svg" xmlns:xlink="http://www.w3.org/1999/xlink" x="0px" y="0px"
	 viewBox="0 0 127 127" style="enable-background:new 0 0 127 127;" xml:space="preserve">
<style type="text/css">
	.st0{fill:#32E0A2;}
	.st1{fill:#36CEA6;}
	.st2{fill:#5655C2;}
	.st3{fill:#5750C4;}
	.st4{fill:#5949C5;}
	.st5{fill:#3AC1A9;}
	.st6{fill:#5361C0;}
	.st7{fill:#5A43C4;}
	.st8{fill:#4D75BA;}
	.st9{fill:#4989B6;}
	.st10{fill:#5C40C7;}
	.st11{fill:#3CB7AB;}
	.st12{fill:#4691B4;}
	.st13{fill:#41A5AE;}
	.st14{fill:#488BB6;}
	.st15{fill:#4B7EB9;}
	.st16{fill:#545DC1;}
	.st17{fill:#3CB8AB;}
	.st18{fill:#506BBC;}
	.st19{fill:#4C7BBA;}
	.st20{fill:#4A82B8;}
	.st21{fill:#41A3AE;}
	.st22{fill:#4692B4;}
	.st23{fill:#439DB2;}
	.st24{fill:#3FACAD;}
	.st25{fill:#3EB2AD;}
	.st26{fill:#5168BE;}
	.st27{fill:#4D72B9;}
	.st28{fill:#439EB2;}
	.st29{fill:#3FADAD;}
	.st30{fill:#4598B3;}
	.st31{fill:#4596B3;}
	.st32{fill:#4F6DBB;}
	.st33{fill:#3DB6AC;}
	.st34{fill:#5262BD;}
	.st35{fill:#3C3C3B;}
	.st36{fill:#2B2A2A;}
	.st37{fill:#33D8A1;}
	.st38{fill:#32E3A1;}
	.st39{fill:#474747;}
	.st40{fill:#22242A;}
	.st41{fill:#4F70BC;}
	.st42{fill:#5A41C3;}
	.st43{fill:#5947C3;}
	.st44{fill:#5A45C6;}
	.st45{fill:#5B43C6;}
	.st46{fill:#5654C1;}
	.st47{fill:#4A79B1;}
	.st48{fill:#37CBA5;}
	.st49{fill:#4786B2;}
	.st50{fill:#4694B3;}
	.st51{fill:#42A1B1;}
	.st52{fill:#2A2929;}
	.st53{fill:#1F1F1D;}
</style>
<circle class="st0" cx="63.8" cy="63.7" r="55.5"/>
<g>
	<path class="st1" d="M59.8,11.7c6.4-3.5,12.1,0.3,18.1,1.8c14.2,9.6,26,21.6,35.8,35.6c1.5,6.4,5.5,12.7,1.4,19.6
		c-6.3,0.9-8.1-4.9-11.9-7.7c-4.5-4.4-5.3-11.9-11.9-14.6c-2.5-0.5-4.7-1.6-6.8-3c-1.6-1.4-2.5-3.2-3.1-5.2
		c-0.3-3.6-3.6-4.3-5.9-6.1c-0.9-0.8-1.5-1.8-1.9-2.9C69.9,22.6,61.8,19.5,59.8,11.7z"/>
	<path class="st2" d="M67.3,115.3c-2.4,2.3-4.9,2.3-7.3,0.1c-12-7.8-20.8-19.1-30.8-28.9c-1.5-1.5-2.4-3.4-1.2-5.6
		c2.8-2.2,5.9-0.2,8.8-0.4c2.2,0.2,4.2,1,6,2c0.7,0.4,1.4,0.9,2,1.4c2,2.1,3.3,4.5,4.2,7.2c0.4,0.9,0.9,1.8,2,2c1-0.1,2-0.2,3,0
		c1.1,0.4,1.9,1.2,2.4,2.2c0.6,1,0.8,2.2,1.2,3.3c1.5,3.6,4.3,6.2,6.8,9.2C66.2,109.9,68.9,111.8,67.3,115.3z"/>
	<path class="st0" d="M113.6,49.2c-12.8-11-24.6-23-35.8-35.6C92,14.4,112.3,34.5,113.6,49.2z"/>
	<path class="st3" d="M28,81.2C35.7,91,45.3,98.9,53.8,108c2.2,2.4,4.1,4.9,6.2,7.4c-1.8-0.2-3.6-0.4-5.3-0.6
		c-16.4-11.9-30.5-26-42.4-42.4c0.2-3.7-2.9-6.8-1.8-10.7c7-0.6,8.7,5.4,12.1,9.4C23.9,74.8,29.1,76.3,28,81.2z"/>
	<path class="st4" d="M12.3,72.4C26.9,86,41,100.1,54.6,114.8c-2.7,0.8-4.9-0.4-7.1-1.8C34.1,104.1,22.9,93,14,79.5
		C12.8,77.3,11.4,75.1,12.3,72.4z"/>
	<path class="st5" d="M59.8,11.7c6.2,4.6,11.6,10,16.3,16.2c-1.8,3.3-4.5,4.5-8.2,3.5c-6.8-5.3-14.6-9.7-16.6-19.1
		C54.1,12.1,56.9,11.9,59.8,11.7z"/>
	<path class="st6" d="M67.3,115.3c-3.5-6-10.4-9.3-12.6-16.3c2.9-2.6,5.9-2.3,9-0.5c4.8,4.9,10.3,9.1,14.3,14.8
		C74.9,116.6,70.8,114.3,67.3,115.3z"/>
	<path class="st7" d="M14,79.5c11.7,10.6,22.9,21.8,33.5,33.5c-3.7,0.8-6.3-1-8.8-3.3c-7.1-7.2-14.2-14.3-21.4-21.4
		C15,85.9,13.2,83.2,14,79.5z"/>
	<path class="st8" d="M90.5,108.1c-1.2,2.2-3.1,3.2-5.4,3.5c-7.8-0.3-10.8-6.3-14.3-11.8c-0.3-1.3-0.3-2.6,0.1-3.9
		c0.5-1.3,1.3-2.2,2.6-2.7c1.3-0.1,2.4,0.3,3.4,1c1.3,0.8,2.6,1.6,4,2.4C84.7,99.8,89.4,102.4,90.5,108.1z"/>
	<path class="st9" d="M99.4,100.9c-1.8,1.8-3.6,3.6-5.4,5.4c-6.4-1.8-9.1-7.7-13.2-12.1c-0.3-0.8-0.3-1.7-0.2-2.5
		c0.8-2.2,2.3-3.7,4.6-4.2C92.4,89.3,96.6,94.4,99.4,100.9z"/>
	<path class="st10" d="M17.3,88.4c9.3,4.9,16.4,12.1,21.4,21.4C29.5,104.7,22.3,97.6,17.3,88.4z"/>
	<path class="st11" d="M51.2,12.3c5.3,5.8,10.6,11.6,15.9,17.4c0.5,0.7,0.5,1.5,0,2.2c-2,1.4-4.1,0.8-6.1,0
		c-0.8-0.3-1.5-0.7-2.2-1.2c-3.8-5.5-10.5-9.2-11.2-16.8C48.8,13.4,50,12.8,51.2,12.3z"/>
	<path class="st12" d="M99.4,100.9c-4.8-4.2-9.5-8.4-14.3-12.6c-1.1-1.1-1.2-2.3-0.6-3.7c0.6-0.7,1.4-1.2,2.3-1.5
		c1.4-0.3,2.7-0.2,4,0.3c4.5,4.5,12,7.1,10.3,15.7C100.5,99.8,99.9,100.4,99.4,100.9z"/>
	<path class="st13" d="M35.2,19.2c1.8-1.1,3.5-2.2,5.3-3.3c5,3.1,9.4,6.9,11.9,12.4c0.1,1.4-0.2,2.6-1.1,3.7
		c-1.6,1.1-3.3,1.3-5.2,0.9C41.4,29.3,35.4,26.5,35.2,19.2z"/>
	<path class="st14" d="M22.5,31.3c1.2-1.2,2.4-2.4,3.6-3.6c7.1,0.8,11.1,4.9,12.2,11.9c-0.4,1.9-1.5,3.2-3,4.3
		c-0.8,0.4-1.6,0.6-2.5,0.7C27.1,41.9,24.5,36.8,22.5,31.3z"/>
	<path class="st15" d="M81.5,93.7c6.1,2.3,8.7,8,12.4,12.7c-0.6,1.6-2.1,1.5-3.5,1.7c-4.4-2.9-8-6.5-10.9-10.9
		C78.8,95.2,79.8,94.3,81.5,93.7z"/>
	<path class="st16" d="M20.8,72.4c-3.2-3.8-6-7.9-10.3-10.6c0.6-2.4,1.2-4.7,1.8-7.1c6.1-0.8,8,4,10.5,8.1c0.3,0.8,0.4,1.7,0.5,2.6
		c0.1,1.8,0.1,3.5-0.7,5.2C22.2,71.3,21.6,71.9,20.8,72.4z"/>
	<path class="st17" d="M104.6,59.8c3.5,3,6.9,5.9,10.4,8.9c0,2.4,0,4.8-0.1,7.2c-5.3,2.8-7.2-1.7-9.9-4.6c-1.2-3.4-2.4-6.8-1.3-10.5
		C103.9,60.5,104.3,60.2,104.6,59.8z"/>
	<path class="st18" d="M72.4,98.9c3.5,4.9,7.7,9.1,12.6,12.6c-1.4,2.1-3.5,1.7-5.5,1.4c-5.9-3.2-10.8-7.4-13.6-13.7
		c0.1-0.9,0.4-1.6,1-2.3C69.4,95.8,70.9,97.5,72.4,98.9z"/>
	<path class="st19" d="M17.3,38.5c0.7-1.2,1.4-2.3,2.1-3.5c7.7,0.6,10.3,6,11.7,12.5c-0.5,1.4-1.4,2.3-2.9,2.7
		C22,48.8,17.6,45.6,17.3,38.5z"/>
	<path class="st20" d="M29.8,47.5c-1.3-6-6.3-8.8-10.4-12.4c0.1-2,1.6-2.9,3.1-3.7c5.5,2.7,6.7,9.1,11.1,12.8
		c0.4,0.7,0.4,1.4,0.1,2.2C32.6,47.5,31.5,48.5,29.8,47.5z"/>
	<path class="st21" d="M111.1,86.6c-1.1,1.8-2.2,3.5-3.3,5.3c-6.8-0.2-9.9-4.5-11.2-10.5c0.9-2.8,2.7-4.3,5.7-4.4
		C106.2,79.3,109.1,82.5,111.1,86.6z"/>
	<path class="st22" d="M36.9,40.2C35.5,34,29.6,31.9,26,27.7c1.2-1.2,2.4-2.4,3.6-3.7c6,2.5,10.5,6.2,12,12.9
		C40.9,39.3,39.9,41.2,36.9,40.2z"/>
	<path class="st23" d="M97.4,81.4c2.8,4.1,6.4,7.5,10.4,10.5c-0.1,2-1.6,2.9-3.1,3.7c-6.8-1.3-9.1-6.8-11.5-12.3
		C94.1,81.5,95.3,80.4,97.4,81.4z"/>
	<path class="st24" d="M51.2,27.9c-4.3-3.3-8.9-6.4-10.7-11.9c1.2-0.6,2.4-1.3,3.6-1.9c4.4,5.1,11.9,7.9,12.3,16.1
		C53.7,31.4,52.4,29.9,51.2,27.9z"/>
	<path class="st25" d="M56.4,29.5C53.3,23.6,45.9,21,44,14c1.2,0,2.4-0.1,3.6-0.1c4.2,5.2,9.2,9.7,12.4,15.6
		C58.8,30.5,57.6,30.5,56.4,29.5z"/>
	<path class="st26" d="M67.1,99c4.1,4.7,8.3,9.3,12.4,14c-0.5,0.2-1,0.3-1.5,0.4c-6.8-1.8-10.2-7.6-14.4-12.4
		C64.2,99.2,65.1,98.1,67.1,99z"/>
	<path class="st27" d="M17.3,38.5c2.9,4.2,6.4,7.9,10.8,10.7c1,1.1,1,2.3,0.5,3.5c-0.6,0.6-1.3,1-2.2,1.2
		c-6.3-0.7-8.8-5.9-12.2-10.1C15.2,42.1,16.3,40.3,17.3,38.5z"/>
	<path class="st28" d="M35.2,19.2c3.5,4,7.1,8.1,10.6,12.1c0.6,2.7-1.2,2.8-3.1,2.9c-4.7-3.1-8.9-6.7-11.4-11.9
		C32.2,20.9,33.1,19.4,35.2,19.2z"/>
	<path class="st29" d="M111.1,86.6c-4.5-1.3-7.5-4.2-8.4-8.9c-0.9-2.8,0.8-3.7,3.1-4.2c4.1,1.8,5.5,5.7,7.1,9.4
		C112.4,84.2,111.8,85.4,111.1,86.6z"/>
	<path class="st30" d="M31.4,22.4c4.4,2.9,8,6.5,10.9,10.9c1,1,1,2.2,0.4,3.4c-0.7,0.5-1.5,0.6-2.2,0c-3.6-4.2-7.2-8.4-10.8-12.6
		C30.2,23.5,30.8,23,31.4,22.4z"/>
	<path class="st31" d="M93.9,83.2c3.8,3.9,5.7,9.6,10.8,12.4c-1.2,1.2-2.4,2.4-3.7,3.6c-1.9-6-7.5-9.3-10.7-14.3
		C90.9,83.2,91.9,82.2,93.9,83.2z"/>
	<path class="st32" d="M14.2,43.9c5.5,0.9,7.4,6.8,12.1,8.9c1.4,1.9,0.8,3.3-1.1,4.4c-6.7,0.2-9.1-4.5-11.2-9.7
		C14.1,46.3,14.1,45.1,14.2,43.9z"/>
	<path class="st33" d="M113,82.9c-3-2.4-6.3-4.5-6.7-8.8c-1.1-1.2-0.9-2.4,0.1-3.6c3.1,1.4,4.7,5.2,8.5,5.3
		C114.3,78.2,113.6,80.6,113,82.9z"/>
	<path class="st26" d="M14,47.5c3.5,3,7,5.9,10.5,8.9c1,1.2,0.9,2.5,0.2,3.8c-0.7,0.6-1.6,0.9-2.5,0.8c-3.8-3.2-9.9-4.8-8.6-11.8
		C13.7,48.6,13.8,48,14,47.5z"/>
	<path class="st34" d="M13.7,49.1c0.9,5.3,5.1,7.9,9,10.8c1.1,2.1,1.1,3.6-1.8,3.6c-2.2-3.6-5.2-6.5-8.7-8.9
		C11.9,52.6,11.7,50.6,13.7,49.1z"/>
	<path class="st35" d="M83.5,36.7c-0.9,2.2,0.8,3.5,1.5,5.2c8.7,7.6,8,22-1.5,32.6c-3.5,0.3-4.4-2.2-5.2-4.9c0.1-4.1,0-8.2-0.6-12.2
		c-0.2-1.6-1.1-3.3-3.2-3.8c-2.4-0.6-2.9,1.3-3.7,2.8c-1.5,2.8-2.5,6-5.3,7.9c-1.2,0.5-2.4,0.5-3.7,0c-2.9-1.8-3.9-4.9-5.4-7.8
		c-0.8-1.5-1.2-3.4-3.6-3c-2.1,0.4-3,2.1-3.3,3.7c-0.6,4-0.7,8.1-0.6,12.2c-0.7,2.6-1.6,5.1-5,5.1c-8.6-9.2-10.2-22.9-4-33.2
		c1.1-1.8,2.7-3.2,3.3-5.3c2.4-4.1,6.9-3.1,10.3-3.6c9.5-1.4,19-0.8,28.4,1.6C83.1,34.4,83.7,35.3,83.5,36.7z"/>
	<path class="st36" d="M83.1,74.1c2.2-7.1,5.6-13.7,5.2-21.8c-0.2-4.1-1.4-7.2-3.3-10.4c2.3,0.7,4.5,1.4,6.8,2.1
		c4.9,4.3,6.8,10.6,10.5,15.7c4,13.7,0.6,19-15.8,25.1c-0.5,0.1-1.1,0.2-1.6,0.4c-0.9,0.4-1.7,0.4-2.5-0.2
		C79.3,81.1,79.4,77.5,83.1,74.1z"/>
	<path class="st37" d="M83.5,36.7c-13.3-3.9-26.5-4.1-39.7,0.1c-0.6,0.5-1.1,0.6-1.7,0c0.1-1.1,0.2-2.3,0.2-3.4
		c1.2-0.6,2.3-1.3,3.5-1.9c1.7,0,3.5,0,5.2,0c3.3-2.3,7.4,0.5,10.8-1.7c1.8,0.6,3.5,1.2,5.3,1.7c3-1.3,6-1.4,9,0
		C79.4,31.9,83.9,30.8,83.5,36.7z"/>
	<path class="st17" d="M100.8,60c-3.7-5-7.5-9.8-9-16c8,2.2,8.4,10.6,12.8,15.9c0,0-0.3,0.4-0.3,0.4C103,61,101.9,60.9,100.8,60z"/>
	<path class="st38" d="M76,31.4c-3,0-6,0-9,0c0-0.6,0.1-1.1,0.1-1.7c3.1,0.1,6.1-0.2,8.9-1.8C76,29,76,30.2,76,31.4z"/>
	<path class="st39" d="M83.1,74.1c0,3.6-1.1,7.2,0.1,10.8c2.4,3.7-1.9,5-2.7,7.5c-0.9,1.9-1.8,3.9-4.6,3.3c-0.6-0.6-1.2-1.3-1.7-1.9
		c-1.1-1-2-2.1-3-3.3c-5.9-7.2-9.4-7.2-15.3,0c-0.9,1.2-1.9,2.2-3,3.3c-0.6,0.6-1.2,1.2-1.8,1.9c-2.8,0.3-3.9-1.1-3.9-3.7
		c-1.1-2.4-2.2-4.7-3.3-7.1c-2.2-3.6-2.8-7.2,0.1-10.8c1.2-1.8,2.3-3.6,3.5-5.4c4.4-7.8,7.9-9.1,14.2-5.4c1.2,0,2.5,0,3.7,0
		c6.3-3.7,9.7-2.4,14.2,5.4C80.8,70.6,81.9,72.4,83.1,74.1z"/>
	<path class="st36" d="M44.1,74.2c0,3.6,1.1,7.2-0.1,10.8c-0.6-0.1-1.2-0.3-1.7-0.4c-0.9-1.2-1.7-2.6-3-3.2
		C25.6,75.1,26.5,64.2,30,52.5c0.5-2.5,2.2-4.5,3.1-6.8c0.2-0.5,0.4-1,0.4-1.6c0,0,0-0.1,0-0.1c2.6-1.8,5-4.6,8.7-2.1
		c-5.3,7.8-3.6,16-1.3,24.1C41.7,68.8,43,71.5,44.1,74.2z"/>
	<path class="st35" d="M53,93.9c-1-8,4.3-12.1,10.6-12.1c6.3,0,11.6,4.1,10.6,12.1c-0.6,0.5-1.3,0.9-1.9,1.4c-1.5,1.9-3.8,1-5.7,1.6
		c-4.1,1-8.2,1.2-11.8-1.6C54.2,94.8,53.6,94.4,53,93.9z"/>
	<path class="st40" d="M31.9,52.8c1.9,2,0,3.7-0.3,5.6c-1.1,7.1-4.8,15.1,6.6,18c3.3,0.8,3.2,5.2,4.1,8.2c-1.7-0.5-3.5-1-5.2-1.5
		c-5.7-1.7-10.4-4.6-13.6-9.8c-1.3-2.7-0.7-5.5-0.4-8.2c0.7-1.8,1.6-3.5,2.4-5.2c1-2,1.9-4.1,3.4-5.8C29.6,53.1,30.7,52.7,31.9,52.8
		z"/>
	<path class="st41" d="M24.6,72.3c3.6,4.2,7.6,7.9,12.4,10.7c-3-0.6-6-1.2-9-1.8c-2.4-3-6.3-4.7-7.2-8.8c0-0.6,0.1-1.2,0.1-1.9
		C22.9,69.5,23.5,71.4,24.6,72.3z"/>
	<path class="st42" d="M54.8,95.3c4.1,0.2,8.2,0.4,12.4,0.5c0.6,0.3,0.9,0.6,0.6,1c-0.2,0.3-0.4,0.5-0.6,0.5c0,0.6,0,1.1,0,1.7
		c-1.2,0.6-2.3,1.3-3.5,1.9c-2.7-1.8-5.8-2-8.9-1.9C54.7,97.8,54.8,96.6,54.8,95.3z"/>
	<path class="st43" d="M47.2,92c1.3,1.2,2.6,2.5,3.9,3.7c-0.2,1.1-0.6,2.7-2,1.7C47.3,96.3,45,94.8,47.2,92z"/>
	<path class="st44" d="M76,95.8c1.3-1.3,2.6-2.5,4-3.8c0.5-0.7,1-0.7,1.6,0c0,0.6,0,1.2,0,1.7c-0.6,1.2-1.3,2.3-2,3.5
		C77.8,98.1,76.2,98.8,76,95.8z"/>
	<path class="st45" d="M67.2,97.3c0-0.5,0-1,0-1.5c1.7-0.2,3.5-0.4,5.2-0.6c0,1.2,0.1,2.4,0.1,3.6C70.7,98.4,68.9,97.9,67.2,97.3z"
		/>
	<path class="st46" d="M81.5,91.9c-0.5,0-1,0-1.6,0c1.1-2.3,2.2-4.7,3.3-7c0.6-0.1,1.2,0,1.7,0.2c0,1.1,0.1,2.2,0.1,3.2
		C83.9,89.5,82.7,90.7,81.5,91.9z"/>
	<path class="st38" d="M61.8,29.7c-3.2,3-7.1,1.3-10.8,1.7c0.1-1.2,0.1-2.3,0.2-3.5c1.8,0.6,3.5,1.1,5.3,1.6c1.2,0,2.4,0,3.6,0
		C60.6,29.6,61.2,29.6,61.8,29.7z"/>
	<path class="st47" d="M100.8,60c1.1,0.1,2.3,0.1,3.4,0.2c1.1,3.4,2.4,6.7,2.1,10.4c0,1.2,0,2.4-0.1,3.6c-1.2,1.2-2.4,2.4-3.6,3.5
		c-1.8,1.2-3.5,2.5-5.3,3.7c-1.2,0.6-2.4,1.2-3.6,1.8c-1.2,0.6-2.4,1.2-3.6,1.8c-1.3-0.1-2.5-0.1-3.8-0.2c2.2-1.3,4.5-2.5,6.6-3.8
		C101.1,75.9,104.5,69.2,100.8,60z"/>
	<path class="st48" d="M42.2,41.9c-2.9,0.7-5.8,1.4-8.7,2.1c0.5-1.8,1.8-3,3.4-3.8c1.8-0.6,2.9-1.8,3.6-3.4c0.5,0,1.1-0.1,1.6,0
		c0.6,0,1.1,0,1.7,0C44.7,38.9,42.8,40.2,42.2,41.9z"/>
	<path class="st49" d="M24.6,72.3c-1.2-0.6-2.4-1.2-3.7-1.8c0-1.8,0-3.6,0-5.3c1.2-1,2.4-1.1,3.5,0C24.5,67.6,24.6,69.9,24.6,72.3z"
		/>
	<path class="st50" d="M24.5,65.2c-1.2,0-2.4,0-3.5,0c0-0.6-0.1-1.1-0.1-1.7c0.6-1.2,1.2-2.4,1.8-3.6c0.6,0,1.1,0,1.7,0
		c0.7-0.6,1.3-0.6,2,0.1C25.7,61.7,25.1,63.4,24.5,65.2z"/>
	<path class="st25" d="M31.9,52.8c-0.7,0.6-1.3,1.2-2,1.8c-1.7,0.5-2.5,0-1.9-1.9c0-1.2,0.1-2.3,0.1-3.5c0.6-0.6,1.1-1.2,1.7-1.8
		c1.1-0.6,2.2-1.2,3.3-1.8C33.9,48.3,32.8,50.5,31.9,52.8z"/>
	<path class="st51" d="M27.9,52.7c0.6,0.6,1.3,1.3,1.9,1.9c-1.2,1.8-2.4,3.5-3.5,5.3c-0.7,0-1.3,0-2-0.1c0.1-1.2,0.1-2.3,0.2-3.5
		c0.6-1.2,1.1-2.4,1.7-3.6C26.8,52.8,27.4,52.7,27.9,52.7z"/>
	<path class="st52" d="M79.6,68.8c-4.5-2.3-8-7.4-14.2-5.4c0.8-2.2,1.3-4.6,2.4-6.6c1.5-2.7,0.7-8.1,6.4-6.5
		c4.4,1.3,7.2,4.9,6.6,9.3C80.5,62.6,82.9,66.2,79.6,68.8z"/>
	<path class="st52" d="M61.7,63.4c-6.2-2-9.6,3.1-14.2,5.4c-3.3-2.6-0.9-6.2-1.3-9.2c-0.6-4.5,2.2-8,6.6-9.3
		c5.6-1.6,4.9,3.8,6.4,6.5C60.4,58.8,60.9,61.2,61.7,63.4z"/>
	<path class="st53" d="M68.5,73.2c-0.3,2.6-2.4,4.5-4.4,5c-2.5,0.6-4.3-2-5.1-4c-1-2.8,1.4-3.5,3.6-3.5
		C64.8,70.7,67.5,69.9,68.5,73.2z"/>
	<path d="M75.1,57c-0.3,0.5-0.6,1.4-1.2,1.6c-1.3,0.6-2.2-0.4-2.4-1.5c-0.1-0.6,0.4-1.7,0.9-1.9C73.6,54.8,74.4,55.7,75.1,57z"/>
	<path d="M54.4,54.5c0.7,1.1,1.5,1.7,1.4,2.3c0,1.2-0.9,2.1-2.1,2c-0.6-0.1-1.6-1.2-1.5-1.5C52.6,56.3,53.4,55.6,54.4,54.5z"/>
</g>
</svg>
