<?xml version="1.0" encoding="utf-8"?>
<!-- Generator: Adobe Illustrator 26.0.0, SVG Export Plug-In . SVG Version: 6.00 Build 0)  -->
<svg version="1.1" id="Layer_1" xmlns="http://www.w3.org/2000/svg" xmlns:xlink="http://www.w3.org/1999/xlink" x="0px" y="0px"
	 viewBox="0 0 127 127" style="enable-background:new 0 0 127 127;" xml:space="preserve">
<style type="text/css">
	.st0{fill:#FEFEFE;}
</style>
<circle cx="63.8" cy="63.7" r="55.5"/>
<g>
	<path class="st0" d="M48.4,73.5c3.5,1.8,7.2,3.3,10.4,5.6c3.1,2.2,5.3,1.9,8.7,0.1c4.1-2.1,7.2-6.8,12.7-5.5
		C91.9,81,91.9,81,79.7,88c-1.9,1.1-4.1,1.8-5.7,3.3c-7.4,6.9-14.9,5.3-22.4,0.4c-1.7-1.2-3.4-2.6-3.2-5.4
		C48.7,82,48.5,77.7,48.4,73.5z"/>
	<path class="st0" d="M80.2,72.1c-0.7-0.1-1.9,0-2.1-0.3c-0.3-0.9-0.5-2-0.3-3c2-10.1-1.6-16.8-11.5-20.1c-2.9-1-3.5-3.4-3.3-6.4
		c0.2-3-0.1-6.1-0.1-9.1c0.1-1.6,0.4-2.5,2.4-1.3c8,4.9,16.1,9.6,24.2,14.3c1.5,0.9,1.9,1.9,1.8,3.4c0,0.4-0.1,0.8,0,1.2
		C93.5,60.9,89.8,68.1,80.2,72.1z"/>
	<path class="st0" d="M59.5,44.3c1,1.3,4.8,2.8,0.4,4.2c-11.9,3.7-12.6,12.7-11.4,22.7c0.1,0.8,0.1,1.6,0.1,2.4
		c-5.1,0.7-8.5,4.7-13.5,6.7c0-10.5,0-20.7,0-31c0-1.6,0.4-2.7,1.9-3.3c1.1-0.5,2.2-1.1,3-1.8C46.5,38.3,53,39.3,59.5,44.3z"/>
</g>
</svg>
