<?xml version="1.0" encoding="utf-8"?>
<!-- Generator: Adobe Illustrator 26.0.0, SVG Export Plug-In . SVG Version: 6.00 Build 0)  -->
<svg version="1.1" id="Layer_1" xmlns="http://www.w3.org/2000/svg" xmlns:xlink="http://www.w3.org/1999/xlink" x="0px" y="0px"
	 viewBox="0 0 127 127" style="enable-background:new 0 0 127 127;" xml:space="preserve">
<style type="text/css">
	.st0{fill:#0088CB;}
	.st1{fill:#FEFEFE;}
</style>
<circle class="st0" cx="63.8" cy="63.7" r="55.5"/>
<g>
	<path class="st1" d="M63.8,32.6c8.1,0,16.3-0.1,24.4,0c9.4,0.1,14.5,8.5,9.8,16.7c-10.2,17.8-20.6,35.4-30.9,53.1
		c-2.1,3.6-5.4,3.5-7.5-0.2C49.4,84.4,39.1,66.5,28.9,48.6c-4.4-7.7,0.3-15.9,9.2-16C46.6,32.5,55.2,32.6,63.8,32.6z"/>
	<path class="st0" d="M67.3,85.5c0-3,0-6,0-9.1c0-11.2,0-22.4,0-33.6c0-2,0.5-2.7,2.6-2.7c6.1,0.1,12.2,0,18.4,0.1
		c3.3,0,4.8,2.2,3.2,5c-7.7,13.5-15.6,27-23.5,40.4C67.8,85.6,67.5,85.6,67.3,85.5z"/>
	<path class="st0" d="M58.9,85.5c-7.8-13.6-15.6-27.3-23.4-40.9c-1.3-2.2-0.3-4.1,2.3-4.2c6.8-0.1,13.5,0,20.3-0.1
		c1.3,0,1.6,0.6,1.6,1.8c0,14.4,0,28.9,0,43.3C59.3,85.4,59.1,85.4,58.9,85.5z"/>
</g>
</svg>
