<?xml version="1.0" encoding="UTF-8"?>
<!DOCTYPE svg PUBLIC "-//W3C//DTD SVG 1.1//EN" "http://www.w3.org/Graphics/SVG/1.1/DTD/svg11.dtd">
<svg xmlns="http://www.w3.org/2000/svg" version="1.1" width="64px" height="64px" style="shape-rendering:geometricPrecision; text-rendering:geometricPrecision; image-rendering:optimizeQuality; fill-rule:evenodd; clip-rule:evenodd" xmlns:xlink="http://www.w3.org/1999/xlink">
<g><path style="opacity:0.938" fill="#f9f900" d="M 21.5,-0.5 C 28.1667,-0.5 34.8333,-0.5 41.5,-0.5C 52.2564,3.9224 59.5897,11.5891 63.5,22.5C 63.5,28.5 63.5,34.5 63.5,40.5C 59.5897,51.4109 52.2564,59.0776 41.5,63.5C 34.8333,63.5 28.1667,63.5 21.5,63.5C 10.7436,59.0776 3.41031,51.4109 -0.5,40.5C -0.5,34.5 -0.5,28.5 -0.5,22.5C 3.41031,11.5891 10.7436,3.9224 21.5,-0.5 Z"/></g>
<g><path style="opacity:1" fill="#0e0c01" d="M 39.5,14.5 C 38.596,15.209 38.2627,16.209 38.5,17.5C 42.9707,16.9106 46.9707,17.5772 50.5,19.5C 50.5,20.1667 50.5,20.8333 50.5,21.5C 45.3814,20.8969 40.7147,21.5636 36.5,23.5C 35.7659,24.7079 35.4326,26.0413 35.5,27.5C 39.7934,26.9705 43.6267,27.9705 47,30.5C 46.3038,34.1141 45.4704,37.7807 44.5,41.5C 39.8221,43.6995 34.8221,45.0329 29.5,45.5C 28.2147,48.0205 27.5481,50.6872 27.5,53.5C 25.712,53.7852 24.0453,53.4519 22.5,52.5C 23.2951,49.8556 23.9618,47.1889 24.5,44.5C 20.5575,44.1254 16.8909,43.1254 13.5,41.5C 17.3864,39.725 21.7197,38.8916 26.5,39C 27.3366,37.9887 27.67,36.8221 27.5,35.5C 28.404,34.791 28.7373,33.791 28.5,32.5C 26.1667,32.5 23.8333,32.5 21.5,32.5C 19.2497,32.0487 17.9164,30.7153 17.5,28.5C 18.1776,26.484 18.8443,24.484 19.5,22.5C 20.1667,22.8333 20.8333,23.1667 21.5,23.5C 23.2132,24.6354 23.8799,26.302 23.5,28.5C 25.8333,28.5 28.1667,28.5 30.5,28.5C 30.366,26.7085 30.6993,25.0418 31.5,23.5C 32.0431,23.44 32.3764,23.1067 32.5,22.5C 28.6875,21.8329 25.0208,21.1663 21.5,20.5C 25.0727,16.9978 29.4061,15.6644 34.5,16.5C 34.838,14.146 35.338,11.8127 36,9.5C 37.3561,8.61983 38.8561,8.28649 40.5,8.5C 40.1667,10.5 39.8333,12.5 39.5,14.5 Z"/></g>
<g><path style="opacity:1" fill="#565600" d="M 39.5,14.5 C 43.0293,16.4228 47.0293,17.0894 51.5,16.5C 51.7373,17.791 51.404,18.791 50.5,19.5C 46.9707,17.5772 42.9707,16.9106 38.5,17.5C 38.2627,16.209 38.596,15.209 39.5,14.5 Z"/></g>
<g><path style="opacity:1" fill="#767600" d="M 21.5,20.5 C 25.0208,21.1663 28.6875,21.8329 32.5,22.5C 32.3764,23.1067 32.0431,23.44 31.5,23.5C 28.1667,22.1667 24.8333,22.1667 21.5,23.5C 20.8333,23.1667 20.1667,22.8333 19.5,22.5C 19.8333,21.5 20.5,20.8333 21.5,20.5 Z"/></g>
<g><path style="opacity:1" fill="#7e7e00" d="M 50.5,21.5 C 45.9362,22.2162 41.2695,22.8829 36.5,23.5C 40.7147,21.5636 45.3814,20.8969 50.5,21.5 Z"/></g>
<g><path style="opacity:1" fill="#e1e100" d="M 21.5,23.5 C 24.8333,22.1667 28.1667,22.1667 31.5,23.5C 30.6993,25.0418 30.366,26.7085 30.5,28.5C 28.1667,28.5 25.8333,28.5 23.5,28.5C 23.8799,26.302 23.2132,24.6354 21.5,23.5 Z"/></g>
<g><path style="opacity:1" fill="#6b6b00" d="M 21.5,32.5 C 23.8333,32.5 26.1667,32.5 28.5,32.5C 28.7373,33.791 28.404,34.791 27.5,35.5C 25.8439,33.9397 23.8439,32.9397 21.5,32.5 Z"/></g>
<g><path style="opacity:1" fill="#686800" d="M 33.5,33.5 C 35.9479,32.5269 38.6146,32.1936 41.5,32.5C 41.7373,33.791 41.404,34.791 40.5,35.5C 38.7211,33.6565 36.3878,32.9898 33.5,33.5 Z"/></g>
<g><path style="opacity:1" fill="#eeee00" d="M 33.5,33.5 C 36.3878,32.9898 38.7211,33.6565 40.5,35.5C 40.7373,36.791 40.404,37.791 39.5,38.5C 36.6122,39.0102 34.2789,38.3435 32.5,36.5C 32.2627,35.209 32.596,34.209 33.5,33.5 Z"/></g>
<g><path style="opacity:1" fill="#7f7f00" d="M 32.5,36.5 C 34.2789,38.3435 36.6122,39.0102 39.5,38.5C 37.0521,39.4731 34.3854,39.8064 31.5,39.5C 31.2627,38.209 31.596,37.209 32.5,36.5 Z"/></g>
<g><path style="opacity:1" fill="#4e4e00" d="M 13.5,41.5 C 16.8909,43.1254 20.5575,44.1254 24.5,44.5C 20.5,44.5 16.5,44.5 12.5,44.5C 12.2627,43.209 12.596,42.209 13.5,41.5 Z"/></g>
</svg>
